<?xml version="1.0" encoding="utf-8"?>
<!-- Uploaded to: SVG Repo, www.svgrepo.com, Generator: SVG Repo Mixer Tools -->
<svg width="800px" height="800px" viewBox="0 0 1024 1024" class="icon"  version="1.1" xmlns="http://www.w3.org/2000/svg"><path d="M511.986 414.714c-191.674 0-334.943 197.644-334.943 374.347 0 56.378 14.317 95.128 43.637 118.527 31.017 24.782 74.386 27.934 108.671 27.934 24.707 0 51.605-1.884 80.119-3.886 65.727-4.578 139.383-4.578 205.072 0 28.512 2.001 55.451 3.886 80.079 3.886 75.346 0 152.308-17.394 152.308-146.462 0-176.702-143.228-374.346-334.943-374.346z" fill="#FCB814" /><path d="M655.237 453.999c68.496 73.199 110.236 174.568 110.236 269.898 0 129.067-76.962 146.463-152.306 146.463-24.628 0-51.566-1.884-80.08-3.886-65.687-4.577-139.343-4.577-205.07 0-28.515 2.001-55.412 3.886-80.119 3.886-17.92 0-38.303-0.954-58.124-5.313 7.207 17.536 17.388 31.754 30.907 42.541 31.015 24.783 74.383 27.937 108.672 27.937 24.705 0 51.604-1.886 80.118-3.885 65.727-4.579 139.383-4.579 205.072 0 28.514 2 55.451 3.885 80.079 3.885 75.346 0 152.308-17.397 152.308-146.463-0.001-128.817-76.165-268.669-191.693-335.063z" fill="#070707" /><path d="M237.652 524.078c22.742-9.311 40.099-27.78 48.835-51.947 11.542-31.902 7.464-70.421-11.199-105.673-32.443-61.263-103.939-95.43-155.965-74.038-22.784 9.315-40.099 27.824-48.873 52.026-11.542 31.863-7.464 70.385 11.199 105.673 25.59 48.33 74.117 80.812 120.718 80.812 12.388 0 24.279-2.309 35.285-6.853zM422.249 408.445c5.001 0 10.005-0.501 15.006-1.501 58.685-12.008 94.047-90.663 80.579-179.056-13.43-88.237-72.076-149.925-130.912-137.919-58.726 11.968-94.047 90.589-80.579 179.018 12.315 80.812 61.031 139.458 115.906 139.458zM953.564 344.447c-8.736-24.162-26.13-42.711-48.875-52.026-52.14-21.471-123.523 12.775-155.964 74.038-18.662 35.288-22.74 73.809-11.2 105.673 8.736 24.167 26.095 42.597 48.835 51.947 11.006 4.505 22.898 6.814 35.326 6.814h0.04c46.56 0 95.009-32.479 120.598-80.773 18.663-35.248 22.78-73.77 11.24-105.673zM626.198 406.944a76.259 76.259 0 0 0 14.971 1.501h0.039c54.796 0 103.552-58.646 115.905-139.458 13.47-88.429-21.933-167.05-80.579-179.018-58.915-12.006-117.521 49.682-130.914 137.919-13.545 88.393 21.857 167.048 80.578 179.056z" fill="#FCB814" /><path d="M275.289 366.46c-23.675-44.709-68.142-74.863-110.671-79.648 24.92 14.012 47.279 35.939 61.799 63.358 18.662 35.25 22.74 73.771 11.199 105.671-8.736 24.167-26.095 42.638-48.835 51.949-11.006 4.541-22.898 6.851-35.287 6.851-3.52 0-7.053-0.54-10.585-0.902 18.873 10.818 39.294 17.195 59.457 17.195 12.39 0 24.283-2.312 35.288-6.853 22.742-9.311 40.099-27.782 48.835-51.947 11.54-31.904 7.462-70.424-11.2-105.674zM517.834 227.888c-10.639-69.9-49.68-122.978-94.686-136.117 22.373 24.913 39.354 61.09 45.814 103.536 13.468 88.39-21.894 167.049-80.58 179.057a76.202 76.202 0 0 1-15.005 1.499c-7.383 0-14.639-1.141-21.727-3.178 20.023 22.467 44.589 35.759 70.599 35.759a76.22 76.22 0 0 0 15.006-1.499c58.686-12.007 94.048-90.667 80.579-179.057zM953.562 344.445c-7.446-20.595-21.444-36.713-39.424-46.911 2.576 4.557 5.003 9.244 6.842 14.33 11.542 31.906 7.425 70.425-11.237 105.676-25.59 48.293-74.038 80.771-120.599 80.771h-0.04c-12.427 0-24.32-2.307-35.326-6.814-3.357-1.38-6.334-3.353-9.448-5.118 9.65 17.085 24.055 30.31 42.03 37.701 11.006 4.505 22.898 6.813 35.326 6.813h0.04c46.56 0 95.009-32.479 120.598-80.77 18.663-35.252 22.78-73.771 11.238-105.678zM714.244 109.321c12.178 31.099 16.525 69.845 10.287 110.795-12.353 80.81-61.108 139.455-115.905 139.455h-0.04c-4.961 0-9.965-0.497-14.969-1.499-14.055-2.876-26.726-9.657-37.759-19.385 14.119 36.054 38.816 61.81 70.341 68.257a76.174 76.174 0 0 0 14.969 1.499h0.04c54.796 0 103.552-58.645 115.905-139.455 10.246-67.271-7.837-128.771-42.869-159.667z" fill="#070707" /></svg>